<svg id="img" xmlns="http://www.w3.org/2000/svg" width="17" height="17" viewBox="0 0 17 17" fill="none">
    <path fill-rule="evenodd" clip-rule="evenodd" d="M1.41666 8.50001C1.41666 4.58799 4.58797 1.41667 8.49999 1.41667C12.412 1.41667 15.5833 4.58799 15.5833 8.50001C15.5833 12.412 12.412 15.5833 8.49999 15.5833C4.58797 15.5833 1.41666 12.412 1.41666 8.50001ZM8.49999 2.83334C5.37038 2.83334 2.83332 5.37039 2.83332 8.50001C2.83332 11.6296 5.37038 14.1667 8.49999 14.1667C11.6296 14.1667 14.1667 11.6296 14.1667 8.50001C14.1667 5.37039 11.6296 2.83334 8.49999 2.83334Z" fill="black"/>
    <path fill-rule="evenodd" clip-rule="evenodd" d="M11.7868 5.83085C12.0873 6.08129 12.1279 6.52794 11.8775 6.82847L8.33581 11.0785C8.21215 11.2269 8.03327 11.3183 7.84057 11.3316C7.64788 11.345 7.4581 11.2791 7.31517 11.1491L5.19017 9.21731C4.90071 8.95416 4.87938 8.50618 5.14253 8.21671C5.40568 7.92725 5.85366 7.90591 6.14313 8.16907L7.72093 9.60343L10.7892 5.92154C11.0396 5.62101 11.4863 5.58041 11.7868 5.83085Z" fill="black"/>
</svg>