<svg width="360" height="43" viewBox="0 0 360 43" fill="none" xmlns="http://www.w3.org/2000/svg">
<rect x="7" width="346" height="43" fill="#FEE693"/>
<rect x="12" y="9" width="335" height="5" fill="#207403"/>
<rect x="12" y="27" width="335" height="5" fill="#207403"/>
<path fill-rule="evenodd" clip-rule="evenodd" d="M20.5 0H9V43H20.5H21V42.953C24.909 42.2155 28 32.8925 28 21.5C28 10.1075 24.909 0.784546 21 0.0469971V0H20.5Z" fill="#207403"/>
<path d="M14.5 21.5C14.5 27.3963 13.6655 32.7131 12.3312 36.5381C11.6632 38.453 10.8793 39.9669 10.0336 40.9923C9.18516 42.021 8.32637 42.5 7.5 42.5C6.67363 42.5 5.81484 42.021 4.9664 40.9923C4.1207 39.9669 3.33677 38.453 2.6688 36.5381C1.33449 32.7131 0.5 27.3963 0.5 21.5C0.5 15.6037 1.33449 10.2869 2.6688 6.46189C3.33677 4.54704 4.1207 3.03312 4.9664 2.00771C5.81484 0.978971 6.67363 0.5 7.5 0.5C8.32637 0.5 9.18516 0.978971 10.0336 2.00771C10.8793 3.03312 11.6632 4.54704 12.3312 6.46189C13.6655 10.2869 14.5 15.6037 14.5 21.5Z" fill="white" stroke="black"/>
<path fill-rule="evenodd" clip-rule="evenodd" d="M340.5 43H352V0H340.5H340V0.04702C336.091 0.784592 333 10.1075 333 21.5C333 32.8925 336.091 42.2154 340 42.953V43H340.5Z" fill="#207403"/>
<path d="M359.5 21.5C359.5 27.3963 358.666 32.7131 357.331 36.5381C356.663 38.453 355.879 39.9669 355.034 40.9923C354.185 42.021 353.326 42.5 352.5 42.5C351.674 42.5 350.815 42.021 349.966 40.9923C349.121 39.9669 348.337 38.453 347.669 36.5381C346.334 32.7131 345.5 27.3963 345.5 21.5C345.5 15.6037 346.334 10.2869 347.669 6.46189C348.337 4.54704 349.121 3.03312 349.966 2.00771C350.815 0.978971 351.674 0.5 352.5 0.5C353.326 0.5 354.185 0.978971 355.034 2.00771C355.879 3.03312 356.663 4.54704 357.331 6.46189C358.666 10.2869 359.5 15.6037 359.5 21.5Z" fill="#FDFDFD" stroke="black"/>
<ellipse cx="352.5" cy="22" rx="2.5" ry="5" fill="#060606"/>
<ellipse cx="355.5" cy="22" rx="2.5" ry="5" fill="#060606"/>
<ellipse cx="353.5" cy="22" rx="2.5" ry="5" fill="#060606"/>
<ellipse cx="354.5" cy="22" rx="2.5" ry="5" fill="#060606"/>
<ellipse cx="352.5" cy="22" rx="2.5" ry="5" fill="#060606"/>
<ellipse cx="5.5" cy="22" rx="2.5" ry="5" fill="#060606"/>
<ellipse cx="8.5" cy="22" rx="2.5" ry="5" fill="#060606"/>
<ellipse cx="6.5" cy="22" rx="2.5" ry="5" fill="#060606"/>
<ellipse cx="7.5" cy="22" rx="2.5" ry="5" fill="#060606"/>
<ellipse cx="5.5" cy="22" rx="2.5" ry="5" fill="#060606"/>
</svg>
