<svg xmlns="http://www.w3.org/2000/svg" width="16" height="16" viewBox="0 0 16 16" fill="none">
    <path fill-rule="evenodd" clip-rule="evenodd" d="M2.66666 2.66667C2.66666 2.29848 2.96513 2 3.33332 2H12.6667C13.0348 2 13.3333 2.29848 13.3333 2.66667C13.3333 3.03486 13.0348 3.33333 12.6667 3.33333H3.33332C2.96513 3.33333 2.66666 3.03486 2.66666 2.66667Z" fill="black"/>
    <path fill-rule="evenodd" clip-rule="evenodd" d="M3.94888 4.66864C4.31599 4.6404 4.63648 4.9151 4.66472 5.28221L5.18934 12.1023C5.24277 12.7969 5.82203 13.3333 6.51874 13.3333H9.48128C10.178 13.3333 10.7573 12.7969 10.8107 12.1023L11.3353 5.28221C11.3635 4.9151 11.684 4.6404 12.0511 4.66864C12.4182 4.69688 12.693 5.01737 12.6647 5.38447L12.1401 12.2045C12.0332 13.5939 10.8747 14.6667 9.48128 14.6667H6.51874C5.12531 14.6667 3.9668 13.5939 3.85993 12.2045L3.33531 5.38447C3.30707 5.01737 3.58178 4.69688 3.94888 4.66864Z" fill="black"/>
    <path fill-rule="evenodd" clip-rule="evenodd" d="M8.00001 2.76702C8.3856 3.1269 8.89755 3.33334 9.43682 3.33334L10.6667 3.33334V2.00001L9.43682 2.00001C9.17858 2.00001 8.93742 1.87094 8.79418 1.65607C8.41638 1.08937 7.58364 1.08937 7.20584 1.65607C7.0626 1.87094 6.82144 2.00001 6.5632 2.00001L5.33334 2.00001V3.33334L6.5632 3.33334C7.10247 3.33334 7.61442 3.1269 8.00001 2.76702Z" fill="black"/>
</svg>