<svg xmlns="http://www.w3.org/2000/svg" width="17" height="17" viewBox="0 0 17 17" fill="none">
    <path d="M9.20477 2.125C5.68081 2.125 2.83331 4.97958 2.83331 8.5H0.708313L3.46727 11.259L3.51685 11.3617L6.37498 8.5H4.24998C4.24998 5.76229 6.4706 3.54167 9.20831 3.54167C11.946 3.54167 14.1666 5.76229 14.1666 8.5C14.1666 11.2377 11.946 13.4583 9.20831 13.4583C7.83769 13.4583 6.60165 12.8988 5.70561 12.0027L4.70331 13.005C5.85435 14.1596 7.44456 14.875 9.20477 14.875C12.7287 14.875 15.5833 12.0204 15.5833 8.5C15.5833 4.97958 12.7287 2.125 9.20477 2.125Z" fill="black"/>
</svg>